<svg width="300" height="400" xmlns="http://www.w3.org/2000/svg">
  <rect width="300" height="400" fill="#2d2d2d" />
  <text x="150" y="200" font-family="Arial" font-size="24" fill="#ffffff" text-anchor="middle">No Image</text>
  <path d="M150,120 C117,120 90,147 90,180 C90,213 117,240 150,240 C183,240 210,213 210,180 C210,147 183,120 150,120 Z M150,225 C125.5,225 105,204.5 105,180 C105,155.5 125.5,135 150,135 C174.5,135 195,155.5 195,180 C195,204.5 174.5,225 150,225 Z M150,150 C134,150 120,164 120,180 C120,196 134,210 150,210 C166,210 180,196 180,180 C180,164 166,150 150,150 Z" fill="#757575" />
</svg> 