<svg width="800" height="450" xmlns="http://www.w3.org/2000/svg">
  <rect width="800" height="450" fill="#2d2d2d" />
  <text x="400" y="225" font-family="Arial" font-size="32" fill="#ffffff" text-anchor="middle">No Backdrop Image</text>
  <path d="M400,150 C367,150 340,177 340,210 C340,243 367,270 400,270 C433,270 460,243 460,210 C460,177 433,150 400,150 Z M400,255 C375.5,255 355,234.5 355,210 C355,185.5 375.5,165 400,165 C424.5,165 445,185.5 445,210 C445,234.5 424.5,255 400,255 Z M400,180 C384,180 370,194 370,210 C370,226 384,240 400,240 C416,240 430,226 430,210 C430,194 416,180 400,180 Z" fill="#757575" />
</svg> 